<svg width="130" height="130" viewBox="0 0 130 130" fill="none" xmlns="http://www.w3.org/2000/svg">
<path d="M130 64.9995C130 94.7863 109.964 119.893 82.6334 127.579C82.3776 127.651 82.8904 127.51 82.6334 127.579C77.2552 129.02 70.8327 129.999 65 129.999C59.2804 129.999 52.6509 128.966 47.3666 127.579C47.0045 127.484 47.7262 127.68 47.3666 127.579C20.0363 119.893 0 94.7863 0 64.9995C0 29.1013 29.1015 0 65 0C100.899 0 130 29.1013 130 64.9995Z" fill="#9F987C"/>
<path d="M102.406 94.4374C102.406 109.016 94.8184 121.433 82.6334 127.579C77.5861 130.125 71.039 129.999 65 129.999C59.027 129.999 52.3729 130.073 47.3666 127.579C35.0916 121.464 27.7412 109.083 27.7412 94.4374C27.7412 73.8193 44.4556 57.1051 65.0738 57.1051C85.692 57.1051 102.406 73.8193 102.406 94.4374Z" fill="#FFF7CF"/>
<path fill-rule="evenodd" clip-rule="evenodd" d="M82.6334 127.579V96.1926L75.537 93.255L78.7626 90.3174C77.6874 89.7299 75.1069 87.8498 73.3866 85.0297C71.6663 82.2096 76.2538 78.567 78.7626 77.0982L75.537 74.1606L82.6334 71.8105V28.9215H47.3666V71.8105L52.5276 74.1606L49.9471 77.0982C52.3843 78.2732 57.0865 81.5046 56.3983 85.0297C55.7102 88.5549 51.8108 90.0237 49.9471 90.3174L52.5276 93.255L47.3666 96.1926V127.579C47.0045 127.484 47.7262 127.68 47.3666 127.579C52.3729 130.073 59.027 129.999 65 129.999C71.039 129.999 77.5861 130.125 82.6334 127.579C82.8904 127.51 82.3776 127.651 82.6334 127.579Z" fill="#493D33"/>
</svg>
